<svg xmlns="http://www.w3.org/2000/svg" width="1920" height="1080" viewBox="0 0 1920 1080" fill="none"><g clip-path="url(#clip0_101_48)"><rect width="1920" height="1080" fill="white"/><rect x="6" width="40.5714" height="1080" stroke="url(#paint0_linear_101_48)" stroke-opacity="0.05"/><rect x="87.1428" width="40.5714" height="1080" stroke="url(#paint1_linear_101_48)" stroke-opacity="0.05"/><rect x="168.286" width="40.5714" height="1080" stroke="url(#paint2_linear_101_48)" stroke-opacity="0.05"/><rect x="249.428" width="40.5714" height="1080" stroke="url(#paint3_linear_101_48)" stroke-opacity="0.05"/><rect x="330.571" width="40.5714" height="1080" stroke="url(#paint4_linear_101_48)" stroke-opacity="0.05"/><rect x="411.714" width="40.5714" height="1080" stroke="url(#paint5_linear_101_48)" stroke-opacity="0.05"/><rect x="492.857" width="40.5714" height="1080" stroke="url(#paint6_linear_101_48)" stroke-opacity="0.05"/><rect x="574" width="40.5714" height="1080" stroke="url(#paint7_linear_101_48)" stroke-opacity="0.05"/><rect x="655.143" width="40.5714" height="1080" stroke="url(#paint8_linear_101_48)" stroke-opacity="0.05"/><rect x="736.286" width="40.5714" height="1080" stroke="url(#paint9_linear_101_48)" stroke-opacity="0.05"/><rect x="817.429" width="40.5714" height="1080" stroke="url(#paint10_linear_101_48)" stroke-opacity="0.05"/><rect x="898.571" width="40.5714" height="1080" stroke="url(#paint11_linear_101_48)" stroke-opacity="0.05"/><rect x="979.714" width="40.5714" height="1080" stroke="url(#paint12_linear_101_48)" stroke-opacity="0.05"/><rect x="1467" width="40.5714" height="1080" stroke="url(#paint13_linear_101_48)" stroke-opacity="0.05"/><rect x="1060.86" width="40.5714" height="1080" stroke="url(#paint14_linear_101_48)" stroke-opacity="0.05"/><rect x="1548.14" width="40.5714" height="1080" stroke="url(#paint15_linear_101_48)" stroke-opacity="0.05"/><rect x="1142" width="40.5714" height="1080" stroke="url(#paint16_linear_101_48)" stroke-opacity="0.05"/><rect x="1629.29" width="40.5714" height="1080" stroke="url(#paint17_linear_101_48)" stroke-opacity="0.05"/><rect x="1223.14" width="40.5714" height="1080" stroke="url(#paint18_linear_101_48)" stroke-opacity="0.05"/><rect x="1710.43" width="40.5714" height="1080" stroke="url(#paint19_linear_101_48)" stroke-opacity="0.05"/><rect x="1304.29" width="40.5714" height="1080" stroke="url(#paint20_linear_101_48)" stroke-opacity="0.05"/><rect x="1791.57" width="40.5714" height="1080" stroke="url(#paint21_linear_101_48)" stroke-opacity="0.05"/><rect x="1385.43" width="40.5714" height="1080" stroke="url(#paint22_linear_101_48)" stroke-opacity="0.05"/><rect x="1872.71" width="40.5714" height="1080" stroke="url(#paint23_linear_101_48)" stroke-opacity="0.05"/><rect x="-4" y="1041" width="40" height="1952" transform="rotate(-90 -4 1041)" stroke="url(#paint24_linear_101_48)" stroke-opacity="0.05"/><rect x="-4" y="961" width="40" height="1952" transform="rotate(-90 -4 961)" stroke="url(#paint25_linear_101_48)" stroke-opacity="0.05"/><rect x="-4" y="881" width="40" height="1952" transform="rotate(-90 -4 881)" stroke="url(#paint26_linear_101_48)" stroke-opacity="0.05"/><rect x="-4" y="801" width="40" height="1952" transform="rotate(-90 -4 801)" stroke="url(#paint27_linear_101_48)" stroke-opacity="0.05"/><rect x="-4" y="721" width="40" height="1952" transform="rotate(-90 -4 721)" stroke="url(#paint28_linear_101_48)" stroke-opacity="0.05"/><rect x="-4" y="641" width="40" height="1952" transform="rotate(-90 -4 641)" stroke="url(#paint29_linear_101_48)" stroke-opacity="0.05"/><rect x="-4" y="561" width="40" height="1952" transform="rotate(-90 -4 561)" stroke="url(#paint30_linear_101_48)" stroke-opacity="0.05"/><rect x="-4" y="481" width="40" height="1952" transform="rotate(-90 -4 481)" stroke="url(#paint31_linear_101_48)" stroke-opacity="0.05"/><rect x="-4" y="401" width="40" height="1952" transform="rotate(-90 -4 401)" stroke="url(#paint32_linear_101_48)" stroke-opacity="0.05"/><rect x="-4" y="321" width="40" height="1952" transform="rotate(-90 -4 321)" stroke="url(#paint33_linear_101_48)" stroke-opacity="0.05"/><rect x="-4" y="241" width="40" height="1952" transform="rotate(-90 -4 241)" stroke="url(#paint34_linear_101_48)" stroke-opacity="0.05"/><rect x="-4" y="161" width="40" height="1952" transform="rotate(-90 -4 161)" stroke="url(#paint35_linear_101_48)" stroke-opacity="0.05"/><rect x="-4" y="81" width="40" height="1952" transform="rotate(-90 -4 81)" stroke="url(#paint36_linear_101_48)" stroke-opacity="0.05"/><rect x="-4" y="1" width="40" height="1952" transform="rotate(-90 -4 1)" stroke="url(#paint37_linear_101_48)" stroke-opacity="0.05"/><g opacity="0.15" filter="url(#filter0_f_101_48)"><ellipse cx="827.391" cy="1072.45" rx="460.522" ry="286.213" fill="#071E47"/><path d="M640.957 481L1201.24 1084.12H80.6757L640.957 481Z" fill="#016CFA"/><path d="M1267.04 756.837L1827.32 1359.96H706.763L1267.04 756.837Z" fill="#7187FF"/><ellipse cx="1091.74" cy="943.61" rx="460.522" ry="286.213" fill="#016CFA"/></g></g><defs><filter id="filter0_f_101_48" x="-269.324" y="131" width="2446.65" height="1578.96" filterUnits="userSpaceOnUse" color-interpolation-filters="sRGB"><feGaussianBlur stdDeviation="175"/></filter><linearGradient id="paint0_linear_101_48" x1="26.2857" y1="0" x2="26.2857" y2="1080" gradientUnits="userSpaceOnUse"><stop stop-color="#2C3997"/><stop offset="1" stop-color="#3441AD" stop-opacity="0"/></linearGradient><linearGradient id="paint1_linear_101_48" x1="107.429" y1="0" x2="107.429" y2="1080" gradientUnits="userSpaceOnUse"><stop stop-color="#2C3997"/><stop offset="1" stop-color="#3441AD" stop-opacity="0"/></linearGradient><linearGradient id="paint2_linear_101_48" x1="188.571" y1="0" x2="188.571" y2="1080" gradientUnits="userSpaceOnUse"><stop stop-color="#2C3997"/><stop offset="1" stop-color="#3441AD" stop-opacity="0"/></linearGradient><linearGradient id="paint3_linear_101_48" x1="269.714" y1="0" x2="269.714" y2="1080" gradientUnits="userSpaceOnUse"><stop stop-color="#2C3997"/><stop offset="1" stop-color="#3441AD" stop-opacity="0"/></linearGradient><linearGradient id="paint4_linear_101_48" x1="350.857" y1="0" x2="350.857" y2="1080" gradientUnits="userSpaceOnUse"><stop stop-color="#2C3997"/><stop offset="1" stop-color="#3441AD" stop-opacity="0"/></linearGradient><linearGradient id="paint5_linear_101_48" x1="432" y1="0" x2="432" y2="1080" gradientUnits="userSpaceOnUse"><stop stop-color="#2C3997"/><stop offset="1" stop-color="#3441AD" stop-opacity="0"/></linearGradient><linearGradient id="paint6_linear_101_48" x1="513.143" y1="0" x2="513.143" y2="1080" gradientUnits="userSpaceOnUse"><stop stop-color="#2C3997"/><stop offset="1" stop-color="#3441AD" stop-opacity="0"/></linearGradient><linearGradient id="paint7_linear_101_48" x1="594.286" y1="0" x2="594.286" y2="1080" gradientUnits="userSpaceOnUse"><stop stop-color="#2C3997"/><stop offset="1" stop-color="#3441AD" stop-opacity="0"/></linearGradient><linearGradient id="paint8_linear_101_48" x1="675.429" y1="0" x2="675.429" y2="1080" gradientUnits="userSpaceOnUse"><stop stop-color="#2C3997"/><stop offset="1" stop-color="#3441AD" stop-opacity="0"/></linearGradient><linearGradient id="paint9_linear_101_48" x1="756.571" y1="0" x2="756.571" y2="1080" gradientUnits="userSpaceOnUse"><stop stop-color="#2C3997"/><stop offset="1" stop-color="#3441AD" stop-opacity="0"/></linearGradient><linearGradient id="paint10_linear_101_48" x1="837.714" y1="0" x2="837.714" y2="1080" gradientUnits="userSpaceOnUse"><stop stop-color="#2C3997"/><stop offset="1" stop-color="#3441AD" stop-opacity="0"/></linearGradient><linearGradient id="paint11_linear_101_48" x1="918.857" y1="0" x2="918.857" y2="1080" gradientUnits="userSpaceOnUse"><stop stop-color="#2C3997"/><stop offset="1" stop-color="#3441AD" stop-opacity="0"/></linearGradient><linearGradient id="paint12_linear_101_48" x1="1000" y1="0" x2="1000" y2="1080" gradientUnits="userSpaceOnUse"><stop stop-color="#2C3997"/><stop offset="1" stop-color="#3441AD" stop-opacity="0"/></linearGradient><linearGradient id="paint13_linear_101_48" x1="1487.29" y1="0" x2="1487.29" y2="1080" gradientUnits="userSpaceOnUse"><stop stop-color="#2C3997"/><stop offset="1" stop-color="#3441AD" stop-opacity="0"/></linearGradient><linearGradient id="paint14_linear_101_48" x1="1081.14" y1="0" x2="1081.14" y2="1080" gradientUnits="userSpaceOnUse"><stop stop-color="#2C3997"/><stop offset="1" stop-color="#3441AD" stop-opacity="0"/></linearGradient><linearGradient id="paint15_linear_101_48" x1="1568.43" y1="0" x2="1568.43" y2="1080" gradientUnits="userSpaceOnUse"><stop stop-color="#2C3997"/><stop offset="1" stop-color="#3441AD" stop-opacity="0"/></linearGradient><linearGradient id="paint16_linear_101_48" x1="1162.29" y1="0" x2="1162.29" y2="1080" gradientUnits="userSpaceOnUse"><stop stop-color="#2C3997"/><stop offset="1" stop-color="#3441AD" stop-opacity="0"/></linearGradient><linearGradient id="paint17_linear_101_48" x1="1649.57" y1="0" x2="1649.57" y2="1080" gradientUnits="userSpaceOnUse"><stop stop-color="#2C3997"/><stop offset="1" stop-color="#3441AD" stop-opacity="0"/></linearGradient><linearGradient id="paint18_linear_101_48" x1="1243.43" y1="0" x2="1243.43" y2="1080" gradientUnits="userSpaceOnUse"><stop stop-color="#2C3997"/><stop offset="1" stop-color="#3441AD" stop-opacity="0"/></linearGradient><linearGradient id="paint19_linear_101_48" x1="1730.71" y1="0" x2="1730.71" y2="1080" gradientUnits="userSpaceOnUse"><stop stop-color="#2C3997"/><stop offset="1" stop-color="#3441AD" stop-opacity="0"/></linearGradient><linearGradient id="paint20_linear_101_48" x1="1324.57" y1="0" x2="1324.57" y2="1080" gradientUnits="userSpaceOnUse"><stop stop-color="#2C3997"/><stop offset="1" stop-color="#3441AD" stop-opacity="0"/></linearGradient><linearGradient id="paint21_linear_101_48" x1="1811.86" y1="0" x2="1811.86" y2="1080" gradientUnits="userSpaceOnUse"><stop stop-color="#2C3997"/><stop offset="1" stop-color="#3441AD" stop-opacity="0"/></linearGradient><linearGradient id="paint22_linear_101_48" x1="1405.71" y1="0" x2="1405.71" y2="1080" gradientUnits="userSpaceOnUse"><stop stop-color="#2C3997"/><stop offset="1" stop-color="#3441AD" stop-opacity="0"/></linearGradient><linearGradient id="paint23_linear_101_48" x1="1893" y1="0" x2="1893" y2="1080" gradientUnits="userSpaceOnUse"><stop stop-color="#2C3997"/><stop offset="1" stop-color="#3441AD" stop-opacity="0"/></linearGradient><linearGradient id="paint24_linear_101_48" x1="16" y1="1041" x2="16" y2="2993" gradientUnits="userSpaceOnUse"><stop stop-color="#2C3997"/><stop offset="1" stop-color="#3441AD" stop-opacity="0"/></linearGradient><linearGradient id="paint25_linear_101_48" x1="16" y1="961" x2="16" y2="2913" gradientUnits="userSpaceOnUse"><stop stop-color="#2C3997"/><stop offset="1" stop-color="#3441AD" stop-opacity="0"/></linearGradient><linearGradient id="paint26_linear_101_48" x1="16" y1="881" x2="16" y2="2833" gradientUnits="userSpaceOnUse"><stop stop-color="#2C3997"/><stop offset="1" stop-color="#3441AD" stop-opacity="0"/></linearGradient><linearGradient id="paint27_linear_101_48" x1="16" y1="801" x2="16" y2="2753" gradientUnits="userSpaceOnUse"><stop stop-color="#2C3997"/><stop offset="1" stop-color="#3441AD" stop-opacity="0"/></linearGradient><linearGradient id="paint28_linear_101_48" x1="16" y1="721" x2="16" y2="2673" gradientUnits="userSpaceOnUse"><stop stop-color="#2C3997"/><stop offset="1" stop-color="#3441AD" stop-opacity="0"/></linearGradient><linearGradient id="paint29_linear_101_48" x1="16" y1="641" x2="16" y2="2593" gradientUnits="userSpaceOnUse"><stop stop-color="#2C3997"/><stop offset="1" stop-color="#3441AD" stop-opacity="0"/></linearGradient><linearGradient id="paint30_linear_101_48" x1="16" y1="561" x2="16" y2="2513" gradientUnits="userSpaceOnUse"><stop stop-color="#2C3997"/><stop offset="1" stop-color="#3441AD" stop-opacity="0"/></linearGradient><linearGradient id="paint31_linear_101_48" x1="16" y1="481" x2="16" y2="2433" gradientUnits="userSpaceOnUse"><stop stop-color="#2C3997"/><stop offset="1" stop-color="#3441AD" stop-opacity="0"/></linearGradient><linearGradient id="paint32_linear_101_48" x1="16" y1="401" x2="16" y2="2353" gradientUnits="userSpaceOnUse"><stop stop-color="#2C3997"/><stop offset="1" stop-color="#3441AD" stop-opacity="0"/></linearGradient><linearGradient id="paint33_linear_101_48" x1="16" y1="321" x2="16" y2="2273" gradientUnits="userSpaceOnUse"><stop stop-color="#2C3997"/><stop offset="1" stop-color="#3441AD" stop-opacity="0"/></linearGradient><linearGradient id="paint34_linear_101_48" x1="16" y1="241" x2="16" y2="2193" gradientUnits="userSpaceOnUse"><stop stop-color="#2C3997"/><stop offset="1" stop-color="#3441AD" stop-opacity="0"/></linearGradient><linearGradient id="paint35_linear_101_48" x1="16" y1="161" x2="16" y2="2113" gradientUnits="userSpaceOnUse"><stop stop-color="#2C3997"/><stop offset="1" stop-color="#3441AD" stop-opacity="0"/></linearGradient><linearGradient id="paint36_linear_101_48" x1="16" y1="81" x2="16" y2="2033" gradientUnits="userSpaceOnUse"><stop stop-color="#2C3997"/><stop offset="1" stop-color="#3441AD" stop-opacity="0"/></linearGradient><linearGradient id="paint37_linear_101_48" x1="16" y1="1" x2="16" y2="1953" gradientUnits="userSpaceOnUse"><stop stop-color="#2C3997"/><stop offset="1" stop-color="#3441AD" stop-opacity="0"/></linearGradient><clipPath id="clip0_101_48"><rect width="1920" height="1080" fill="white"/></clipPath></defs></svg>